<?xml version="1.0"?>
<svg version="1.1" xmlns="http://www.w3.org/2000/svg" width="400px" height="250px" style="border: dashed 2px #aaa"><path fill="#43c8d1" d="M36.2763671875,80.0732421875q0-0.859375,0.61767578125-1.42333984375t1.4501953125-0.88623046875t1.826171875-0.4296875t1.74560546875-0.107421875q1.5576171875,0,3.30322265625,0.4296875t2.60498046875,1.8798828125q1.5576171875,2.6318359375,2.28271484375,6.25732421875t1.36962890625,6.95556640625q0.966796875,4.619140625,2.470703125,9.66796875t3.14208984375,10.28564453125t3.35693359375,10.28564453125t3.0078125,9.453125q1.5576171875-6.4990234375,2.87353515625-13.3203125t2.5244140625-13.642578125t2.5244140625-13.642578125t2.87353515625-13.3740234375q0.322265625-1.5576171875,0.4833984375-3.9208984375t0.67138671875-4.5654296875t1.47705078125-3.78662109375t2.9541015625-1.58447265625q2.0947265625,0,2.81982421875,1.15478515625t0.72509765625,3.35693359375q-0.537109375,6.0693359375-1.74560546875,12.03125t-2.22900390625,11.923828125q-1.4501953125,7.3583984375-3.14208984375,14.74365234375t-3.1689453125,14.79736328125t-2.5244140625,14.85107421875t-1.26220703125,14.90478515625q0.107421875,0.322265625,0.322265625,0.751953125t0.21484375,0.64453125q0,0.64453125-0.5908203125,1.20849609375t-1.47705078125,0.966796875t-1.93359375,0.61767578125t-1.96044921875,0.21484375q-0.859375,0-1.96044921875-0.107421875t-2.2021484375-0.40283203125t-1.93359375-0.77880859375t-1.04736328125-1.2353515625q-0.859375-2.5244140625-1.58447265625-4.91455078125t-1.36962890625-4.91455078125q-3.0615234375-11.0107421875-6.41845703125-21.61865234375t-6.20361328125-21.56494140625q-1.3427734375-4.94140625-2.01416015625-9.69482421875t-2.17529296875-9.37255859375q0.21484375,0.4296875,0.21484375,0.6982421875q-0.21484375-0.751953125-0.4296875-1.42333984375t-0.4833984375-1.47705078125q0,0.21484375,0.0537109375,0.2685546875t0.0537109375,0.1611328125q0-0.107421875-0.0537109375-0.1611328125t-0.0537109375-0.1611328125z M94.373876953125,134.9658203125q0-3.65234375,0.99365234375-7.0361328125t2.98095703125-6.04248046875t4.96826171875-4.2431640625t6.90185546875-1.58447265625q2.4169921875,0,5.34423828125,0.72509765625t5.50537109375,2.1484375t4.296875,3.62548828125t1.71875,5.048828125q0,1.3427734375-0.45654296875,2.041015625t-1.85302734375,0.6982421875l-0.5908203125-0.107421875q1.5576171875,4.189453125,2.685546875,8.59375t2.2021484375,8.80859375q0.4296875,0.859375,0.64453125,1.53076171875t0.21484375,1.31591796875q0,0.859375-0.4833984375,1.42333984375t-1.26220703125,0.83251953125t-1.611328125,0.3759765625t-1.47705078125,0.107421875q-2.3095703125,0-3.46435546875-0.8056640625t-1.6650390625-2.2021484375t-0.61767578125-3.14208984375t-0.4296875-3.51806640625q-0.64453125,2.0947265625-1.69189453125,4.08203125t-2.470703125,3.57177734375t-3.35693359375,2.5244140625t-4.3505859375,0.93994140625q-3.544921875,0-5.9619140625-2.041015625t-3.89404296875-5.02197265625t-2.1484375-6.36474609375t-0.67138671875-6.2841796875z M102.00083007813,134.2138671875q0,1.9873046875,0.2685546875,4.189453125t0.88623046875,4.3505859375t1.58447265625,4.05517578125t2.4169921875,3.35693359375q2.6318359375-2.8466796875,3.89404296875-6.9287109375t2.255859375-7.86865234375t2.255859375-6.4990234375t3.89404296875-2.71240234375q1.6650390625,0,2.79296875,0.5908203125q-0.537109375-1.3427734375-1.7724609375-2.60498046875t-2.76611328125-2.3095703125t-3.1689453125-1.71875t-3.08837890625-0.67138671875q-0.4296875,0-0.99365234375,0.13427734375t-0.88623046875,0.02685546875q-2.2021484375,0.64453125-3.62548828125,2.22900390625t-2.3095703125,3.73291015625t-1.26220703125,4.404296875t-0.3759765625,4.2431640625z M138.72138671875,130.2392578125q0-1.07421875,0.24169921875-2.8466796875t0.56396484375-3.51806640625t0.751953125-3.24951171875t1.0205078125-1.93359375q0.4296875-0.4296875,1.47705078125-0.859375t2.2021484375-0.61767578125t2.1484375,0.1611328125t1.20849609375,1.42333984375q-0.751953125,0.966796875-1.36962890625,3.30322265625t-0.93994140625,5.18310546875q-0.2685546875,2.4169921875-0.2685546875,4.9951171875l0,0.9130859375q0.0537109375,3.0078125,0.537109375,5.5322265625t1.47705078125,4.16259765625t2.76611328125,1.63818359375q3.759765625,0,6.875-3.46435546875t5.5322265625-8.45947265625t4.2431640625-10.60791015625t3.115234375-9.80224609375q0.322265625-1.2353515625,1.53076171875-1.6650390625t2.60498046875-0.29541015625t2.49755859375,0.67138671875t1.31591796875,1.2890625q-1.07421875,9.0234375-1.69189453125,18.046875t-0.61767578125,18.154296875q0,1.7724609375,0.1611328125,3.24951171875t-0.1611328125,2.5244140625t-1.42333984375,1.6650390625t-3.51806640625,0.61767578125q-0.537109375,0-1.36962890625-0.107421875t-1.71875-0.34912109375t-1.50390625-0.72509765625t-0.61767578125-1.1279296875q0-3.974609375,0.29541015625-8.1640625t0.83251953125-8.1103515625q-1.4501953125,2.0947265625-3.19580078125,4.16259765625t-3.84033203125,3.73291015625t-4.51171875,2.65869140625t-5.2099609375,0.99365234375q-3.974609375,0-6.25732421875-1.8798828125t-3.4375-4.69970703125t-1.4501953125-6.14990234375t-0.29541015625-6.4453125z M189.24565429687,154.033203125q0-1.5576171875,0.13427734375-3.2763671875t0.24169921875-3.22265625l0.322265625-8.056640625q0.537109375-9.66796875,1.31591796875-19.013671875t1.31591796875-18.90625q0.322265625-5.263671875,0.4833984375-10.33935546875t0.4833984375-10.33935546875q-0.21484375-0.4296875-0.21484375-0.5908203125q0-0.751953125,0.56396484375-1.181640625t1.31591796875-0.72509765625t1.58447265625-0.40283203125t1.26220703125-0.107421875l1.2353515625,0q1.6650390625,0.21484375,2.4169921875,1.04736328125t0.966796875,1.9873046875t0.107421875,2.470703125t-0.107421875,2.44384765625q0,7.7880859375-0.3759765625,15.87158203125t-0.859375,16.220703125t-0.88623046875,16.2744140625t-0.40283203125,16.08642578125l0,3.759765625q0,2.5244140625-1.42333984375,3.330078125t-3.94775390625,0.8056640625q-2.2021484375,0-3.8671875-0.966796875t-1.6650390625-3.1689453125z M211.6791015625,100.859375q0-0.751953125,1.611328125-1.2890625t3.65234375-0.88623046875t3.94775390625-0.51025390625t2.60498046875-0.2685546875q0-1.4501953125,0.107421875-2.92724609375t0.5908203125-2.6318359375t1.53076171875-1.85302734375t2.92724609375-0.6982421875q1.5576171875,0,2.36328125,0.3759765625t1.71875,1.5576171875q0.21484375,0.64453125,0.21484375,1.2353515625l0,1.79931640625t-0.107421875,1.85302734375q1.9873046875-0.21484375,3.94775390625-0.51025390625t3.94775390625-0.29541015625q1.4501953125,0,1.9873046875,0.0537109375t1.07421875,1.2890625q0.4296875,1.2353515625-1.04736328125,1.8798828125t-3.544921875,0.966796875t-4.10888671875,0.4833984375t-2.470703125,0.1611328125q-0.64453125,9.23828125-1.31591796875,18.3154296875t-0.67138671875,18.4228515625q0,4.189453125,0.2685546875,8.6474609375t1.50390625,8.4326171875q0.322265625,1.2353515625,1.07421875,2.3095703125t0.751953125,2.3095703125q0,0.751953125-0.5908203125,1.181640625t-1.42333984375,0.72509765625t-1.6650390625,0.34912109375t-1.36962890625,0.0537109375q-3.3837890625,0-5.15625-2.5244140625t-2.55126953125-6.04248046875t-0.83251953125-7.22412109375t-0.0537109375-6.015625q0-4.7265625,0.18798828125-9.66796875t0.45654296875-9.775390625t0.751953125-9.453125t1.1279296875-8.59375q-1.8798828125,0.21484375-3.67919921875,0.4833984375t-3.67919921875,0.2685546875q-0.4296875,0-1.15478515625-0.0537109375t-1.36962890625-0.2685546875t-1.10107421875-0.5908203125t-0.45654296875-1.07421875z M251.67602539062,135.986328125q0-3.0615234375,0.77880859375-6.31103515625t2.470703125-5.8544921875t4.27001953125-4.2431640625t6.23046875-1.63818359375q2.7392578125,0,5.77392578125,0.93994140625t5.55908203125,2.685546875t4.10888671875,4.27001953125t1.58447265625,5.6396484375q0,3.759765625-1.36962890625,7.1435546875t-3.84033203125,6.04248046875t-5.77392578125,4.189453125t-7.17041015625,1.53076171875q-3.1689453125,0-5.5322265625-1.15478515625t-3.94775390625-3.08837890625t-2.36328125-4.5654296875t-0.77880859375-5.5859375z M259.57153320312,135.87890625q0,0.966796875,0.29541015625,2.8466796875t0.88623046875,3.67919921875t1.53076171875,3.115234375t2.28271484375,1.20849609375q2.8466796875-0.322265625,4.69970703125-1.85302734375t3.0078125-3.73291015625t1.611328125-4.7802734375t0.45654296875-4.8876953125q0-2.9541015625-1.15478515625-4.94140625t-3.78662109375-3.22265625q0,0.107421875,0.107421875,0.107421875t0.107421875-0.107421875l-1.3427734375-0.322265625q-0.537109375-0.21484375-1.31591796875-0.4833984375t-1.53076171875-1.181640625q-2.0947265625,0.751953125-3.24951171875,1.93359375t-1.74560546875,2.87353515625t-0.72509765625,4.05517578125t-0.13427734375,5.693359375z M290.16904296875,114.9853515625q0-0.4296875,0.51025390625-0.77880859375t1.15478515625-0.51025390625t1.31591796875-0.21484375t0.99365234375-0.0537109375q2.4169921875,0,4.1357421875,2.1484375t2.98095703125,5.50537109375t2.1484375,7.412109375t1.69189453125,8.08349609375t1.58447265625,7.38525390625t1.74560546875,5.18310546875q1.6650390625-3.2763671875,3.03466796875-7.8955078125t2.5244140625-9.560546875t2.041015625-9.74853515625t1.42333984375-8.40576171875q0.21484375-0.966796875,1.3427734375-1.20849609375t1.8798828125-0.24169921875q1.2353515625,0,2.1484375,0.34912109375t0.9130859375,1.53076171875q0,1.9873046875-0.4833984375,5.39794921875t-1.31591796875,7.65380859375t-1.93359375,8.701171875t-2.36328125,8.45947265625t-2.6318359375,7.08984375t-2.71240234375,4.37744140625q-0.64453125,0.751953125-2.01416015625,1.04736328125t-2.28271484375,0.29541015625q-3.1689453125,0-5.263671875-1.6650390625l0,0.107421875q-3.2763671875-3.0615234375-4.833984375-7.4658203125t-2.255859375-9.1845703125t-1.26220703125-9.5068359375t-1.90673828125-8.59375q-0.21484375-0.4296875-0.537109375-1.26220703125t-0.751953125-1.6650390625t-0.72509765625-1.58447265625t-0.29541015625-1.181640625z M332.52924804687,134.9658203125q0-3.65234375,0.99365234375-7.0361328125t2.98095703125-6.04248046875t4.96826171875-4.2431640625t6.90185546875-1.58447265625q2.4169921875,0,5.34423828125,0.72509765625t5.50537109375,2.1484375t4.296875,3.62548828125t1.71875,5.048828125q0,1.3427734375-0.45654296875,2.041015625t-1.85302734375,0.6982421875l-0.5908203125-0.107421875q1.5576171875,4.189453125,2.685546875,8.59375t2.2021484375,8.80859375q0.4296875,0.859375,0.64453125,1.53076171875t0.21484375,1.31591796875q0,0.859375-0.4833984375,1.42333984375t-1.26220703125,0.83251953125t-1.611328125,0.3759765625t-1.47705078125,0.107421875q-2.3095703125,0-3.46435546875-0.8056640625t-1.6650390625-2.2021484375t-0.61767578125-3.14208984375t-0.4296875-3.51806640625q-0.64453125,2.0947265625-1.69189453125,4.08203125t-2.470703125,3.57177734375t-3.35693359375,2.5244140625t-4.3505859375,0.93994140625q-3.544921875,0-5.9619140625-2.041015625t-3.89404296875-5.02197265625t-2.1484375-6.36474609375t-0.67138671875-6.2841796875z M340.15620117187,134.2138671875q0,1.9873046875,0.2685546875,4.189453125t0.88623046875,4.3505859375t1.58447265625,4.05517578125t2.4169921875,3.35693359375q2.6318359375-2.8466796875,3.89404296875-6.9287109375t2.255859375-7.86865234375t2.255859375-6.4990234375t3.89404296875-2.71240234375q1.6650390625,0,2.79296875,0.5908203125q-0.537109375-1.3427734375-1.7724609375-2.60498046875t-2.76611328125-2.3095703125t-3.1689453125-1.71875t-3.08837890625-0.67138671875q-0.4296875,0-0.99365234375,0.13427734375t-0.88623046875,0.02685546875q-2.2021484375,0.64453125-3.62548828125,2.22900390625t-2.3095703125,3.73291015625t-1.26220703125,4.404296875t-0.3759765625,4.2431640625z"/><path fill="#" d=""/></svg>
